<?xml version="1.0" encoding="utf-8"?>
<!-- Generator: Adobe Illustrator 23.1.1, SVG Export Plug-In . SVG Version: 6.00 Build 0)  -->
<svg version="1.1" id="Layer_1" xmlns="http://www.w3.org/2000/svg" xmlns:xlink="http://www.w3.org/1999/xlink" x="0px" y="0px"
	 viewBox="0 0 2421.96 783.14" style="enable-background:new 0 0 2421.96 783.14;" xml:space="preserve">
<style type="text/css">
	.st0{enable-background:new    ;}
	.st1{fill:#26262D;}
	.st2{fill:#2C3ACF;}
	.st3{fill:#FFFFFF;}
</style>
<g class="st0">
	<path class="st1" d="M979.81,245.24c3.27,0,6.67,0.82,10.21,2.45c3.54,1.63,6.26,3.95,8.17,6.95l103.77,158.11l-17.57-0.82
		l105.81-157.29c4.35-6.26,9.94-9.4,16.75-9.4c5.44,0,10.28,1.98,14.5,5.92c4.22,3.95,6.33,8.92,6.33,14.91V510.8
		c0,5.99-1.91,10.97-5.72,14.91c-3.82,3.95-8.85,5.92-15.12,5.92c-6.54,0-11.78-1.97-15.73-5.92c-3.95-3.95-5.92-8.92-5.92-14.91
		V303.67l13.07,2.86l-89.88,136.86c-1.91,2.45-4.36,4.56-7.35,6.33c-3,1.78-6.13,2.52-9.4,2.25c-3,0.27-6.06-0.47-9.19-2.25
		c-3.13-1.77-5.66-3.88-7.56-6.33l-86.61-134.82l9.81-16.34V510.8c0,5.99-1.84,10.97-5.52,14.91c-3.68,3.95-8.52,5.92-14.5,5.92
		c-5.72,0-10.42-1.97-14.09-5.92c-3.68-3.95-5.52-8.92-5.52-14.91V266.08c0-5.72,2.11-10.62,6.33-14.71
		C969.11,247.29,974.09,245.24,979.81,245.24z"/>
	<path class="st1" d="M1464.34,313.47c5.72,0,10.55,1.98,14.5,5.92c3.94,3.95,5.92,8.92,5.92,14.91V510.8
		c0,5.99-1.98,10.97-5.92,14.91c-3.95,3.95-8.78,5.92-14.5,5.92c-5.99,0-10.9-1.97-14.71-5.92c-3.82-3.95-5.72-8.92-5.72-14.91
		v-29.42l8.17,1.23c0,4.9-1.98,10.35-5.92,16.34c-3.95,5.99-9.33,11.78-16.14,17.36c-6.81,5.58-14.85,10.21-24.1,13.89
		c-9.26,3.68-19.2,5.52-29.82,5.52c-18.79,0-35.68-4.83-50.66-14.5c-14.98-9.67-26.83-22.94-35.54-39.83
		c-8.72-16.88-13.07-36.09-13.07-57.61c0-22.06,4.35-41.47,13.07-58.22c8.71-16.75,20.49-29.89,35.34-39.42
		c14.84-9.53,31.39-14.3,49.64-14.3c11.71,0,22.53,1.91,32.48,5.72c9.94,3.82,18.59,8.72,25.94,14.71
		c7.35,5.99,13.07,12.33,17.16,19c4.09,6.68,6.13,13.01,6.13,19l-12.66,1.23v-37.18c0-5.72,1.9-10.62,5.72-14.71
		C1453.44,315.51,1458.34,313.47,1464.34,313.47z M1381,498.13c12.8,0,24.03-3.27,33.71-9.8c9.67-6.54,17.22-15.46,22.67-26.76
		c5.45-11.3,8.17-23.9,8.17-37.79c0-14.16-2.73-26.82-8.17-38c-5.45-11.16-13.01-20.02-22.67-26.56c-9.67-6.54-20.91-9.8-33.71-9.8
		c-12.53,0-23.7,3.27-33.5,9.8c-9.81,6.54-17.43,15.39-22.88,26.56c-5.45,11.17-8.17,23.84-8.17,38c0,13.89,2.72,26.49,8.17,37.79
		c5.45,11.3,13,20.22,22.67,26.76C1356.96,494.87,1368.19,498.13,1381,498.13z"/>
	<path class="st1" d="M1528.89,498.13c-2.45-3.81-3.54-8.23-3.27-13.28c0.27-5.04,3.13-9.33,8.58-12.87
		c3.81-2.45,7.83-3.47,12.05-3.06c4.22,0.41,8.24,2.52,12.05,6.33c7.62,8.45,16.14,15.12,25.53,20.02c9.4,4.9,20.77,7.35,34.11,7.35
		c5.45-0.27,11.03-1.16,16.75-2.66c5.72-1.49,10.62-4.22,14.71-8.17c4.09-3.95,6.13-9.74,6.13-17.36c0-6.8-2.18-12.26-6.54-16.34
		c-4.36-4.09-10.08-7.42-17.16-10.01c-7.09-2.58-14.71-4.97-22.88-7.15c-8.72-2.45-17.5-5.17-26.35-8.17
		c-8.85-2.99-16.82-6.88-23.9-11.64c-7.09-4.76-12.87-10.96-17.36-18.59c-4.49-7.62-6.74-17.02-6.74-28.19
		c0-12.8,3.61-23.83,10.83-33.09c7.21-9.26,16.61-16.48,28.19-21.65c11.57-5.17,24.17-7.76,37.79-7.76c7.9,0,16.2,1.02,24.92,3.06
		c8.71,2.04,17.16,5.25,25.33,9.6c8.17,4.36,15.25,10.08,21.24,17.16c2.72,3.54,4.29,7.76,4.7,12.67c0.41,4.9-1.84,9.26-6.74,13.07
		c-3.27,2.73-7.22,3.95-11.85,3.68c-4.63-0.27-8.45-1.77-11.44-4.49c-5.18-6.54-11.85-11.64-20.02-15.32
		c-8.17-3.68-17.43-5.52-27.78-5.52c-5.18,0-10.56,0.75-16.14,2.25c-5.58,1.5-10.28,4.16-14.09,7.97c-3.82,3.82-5.72,9.4-5.72,16.75
		c0,6.81,2.25,12.26,6.74,16.34c4.49,4.09,10.42,7.49,17.77,10.21c7.35,2.73,15.38,5.18,24.1,7.35c8.44,2.18,16.81,4.77,25.13,7.76
		c8.3,3,15.79,6.88,22.47,11.64c6.67,4.77,12.12,10.9,16.34,18.38c4.22,7.49,6.33,16.95,6.33,28.39c0,13.35-3.88,24.72-11.64,34.11
		c-7.76,9.4-17.57,16.55-29.42,21.45s-24.31,7.35-37.38,7.35c-15.52,0-30.99-2.8-46.37-8.38
		C1552.51,521.77,1539.51,512.03,1528.89,498.13z"/>
	<path class="st1" d="M1724.17,498.13c-2.45-3.81-3.54-8.23-3.27-13.28c0.27-5.04,3.13-9.33,8.58-12.87
		c3.81-2.45,7.83-3.47,12.05-3.06c4.22,0.41,8.24,2.52,12.05,6.33c7.62,8.45,16.14,15.12,25.53,20.02c9.4,4.9,20.77,7.35,34.11,7.35
		c5.45-0.27,11.03-1.16,16.75-2.66c5.72-1.49,10.62-4.22,14.71-8.17c4.09-3.95,6.13-9.74,6.13-17.36c0-6.8-2.18-12.26-6.54-16.34
		c-4.36-4.09-10.08-7.42-17.16-10.01c-7.09-2.58-14.71-4.97-22.88-7.15c-8.72-2.45-17.5-5.17-26.35-8.17
		c-8.85-2.99-16.82-6.88-23.9-11.64c-7.09-4.76-12.87-10.96-17.36-18.59c-4.49-7.62-6.74-17.02-6.74-28.19
		c0-12.8,3.61-23.83,10.83-33.09c7.21-9.26,16.61-16.48,28.19-21.65c11.57-5.17,24.17-7.76,37.79-7.76c7.9,0,16.2,1.02,24.92,3.06
		c8.71,2.04,17.16,5.25,25.33,9.6c8.17,4.36,15.25,10.08,21.24,17.16c2.72,3.54,4.29,7.76,4.7,12.67c0.41,4.9-1.84,9.26-6.74,13.07
		c-3.27,2.73-7.22,3.95-11.85,3.68c-4.63-0.27-8.45-1.77-11.44-4.49c-5.18-6.54-11.85-11.64-20.02-15.32
		c-8.17-3.68-17.43-5.52-27.78-5.52c-5.18,0-10.56,0.75-16.14,2.25c-5.58,1.5-10.28,4.16-14.09,7.97c-3.82,3.82-5.72,9.4-5.72,16.75
		c0,6.81,2.25,12.26,6.74,16.34c4.49,4.09,10.42,7.49,17.77,10.21c7.35,2.73,15.38,5.18,24.1,7.35c8.44,2.18,16.81,4.77,25.13,7.76
		c8.3,3,15.79,6.88,22.47,11.64c6.67,4.77,12.12,10.9,16.34,18.38c4.22,7.49,6.33,16.95,6.33,28.39c0,13.35-3.88,24.72-11.64,34.11
		c-7.76,9.4-17.57,16.55-29.42,21.45s-24.31,7.35-37.38,7.35c-15.52,0-30.99-2.8-46.37-8.38
		C1747.8,521.77,1734.79,512.03,1724.17,498.13z"/>
	<path class="st1" d="M2062.04,245.65c25.05,0,44.05,6.13,56.99,18.38c12.93,12.26,19.41,30.1,19.41,53.52
		c0,12.26-2.93,23.36-8.78,33.3c-5.86,9.95-14.44,17.77-25.74,23.49c-11.31,5.72-25.4,8.72-42.29,8.99l0.82-15.12
		c8.99,0,18.72,1.23,29.21,3.68c10.48,2.45,20.36,6.68,29.62,12.67c9.26,5.99,16.88,14.09,22.88,24.31
		c5.99,10.21,8.99,22.95,8.99,38.2c0,16.62-2.73,30.44-8.17,41.47c-5.45,11.03-12.67,19.68-21.65,25.94
		c-8.99,6.27-18.86,10.69-29.62,13.28c-10.76,2.59-21.31,3.88-31.66,3.88h-104.59c-5.72,0-10.62-1.97-14.71-5.92
		c-4.09-3.95-6.13-8.92-6.13-14.91V266.49c0-5.99,2.04-10.96,6.13-14.91c4.08-3.95,8.99-5.92,14.71-5.92H2062.04z M2056.32,285.69
		h-80.48l4.9-6.54v87.84l-4.49-4.49h80.89c9.81-0.27,18.45-3.61,25.94-10.01c7.49-6.4,11.23-15.86,11.23-28.39
		c0-12.8-3.41-22.4-10.21-28.8C2077.29,288.9,2068.03,285.69,2056.32,285.69z M2059.18,402.54h-81.3l2.86-2.86v96.42l-3.27-3.68
		h84.16c14.16,0,25.6-3.74,34.32-11.23c8.71-7.49,13.07-18.86,13.07-34.11c0-12.8-2.59-22.33-7.76-28.6
		c-5.18-6.26-11.58-10.48-19.2-12.67C2074.43,403.63,2066.8,402.54,2059.18,402.54z"/>
	<path class="st1" d="M2216.88,288.14c-7.9,0-13.62-1.43-17.16-4.29c-3.54-2.86-5.31-7.69-5.31-14.5v-6.54
		c0-6.8,1.9-11.57,5.72-14.3c3.81-2.72,9.53-4.08,17.16-4.08c8.17,0,14.02,1.43,17.57,4.29c3.54,2.86,5.31,7.56,5.31,14.09v6.54
		c0,7.09-1.84,11.99-5.52,14.71C2230.97,286.78,2225.05,288.14,2216.88,288.14z M2237.71,510.8c0,5.99-1.91,10.97-5.72,14.91
		c-3.82,3.95-8.72,5.92-14.71,5.92c-5.72,0-10.56-1.97-14.5-5.92c-3.95-3.95-5.92-8.92-5.92-14.91V335.94
		c0-5.99,1.97-10.96,5.92-14.91c3.94-3.95,8.78-5.92,14.5-5.92c5.99,0,10.89,1.98,14.71,5.92c3.81,3.95,5.72,8.92,5.72,14.91V510.8z
		"/>
	<path class="st1" d="M2290,319.19h96.01c5.45,0,10.01,1.84,13.69,5.52c3.68,3.68,5.51,8.24,5.51,13.69c0,5.18-1.84,9.54-5.51,13.07
		c-3.68,3.54-8.24,5.31-13.69,5.31H2290c-5.45,0-10.01-1.84-13.69-5.51c-3.68-3.68-5.51-8.1-5.51-13.28c0-5.45,1.84-9.94,5.51-13.48
		C2279.99,320.97,2284.55,319.19,2290,319.19z M2332.9,266.08c5.99,0,10.89,1.98,14.71,5.92c3.81,3.95,5.72,8.92,5.72,14.91v189.57
		c0,4.9,0.82,8.85,2.45,11.85c1.63,3,3.88,5.04,6.74,6.13c2.86,1.09,5.78,1.63,8.78,1.63c2.99,0,5.65-0.54,7.97-1.63
		c2.31-1.08,5.11-1.63,8.38-1.63s6.26,1.5,8.99,4.49c2.72,3,4.09,7.09,4.09,12.26c0,6.54-3.54,11.85-10.62,15.93
		c-7.08,4.08-14.71,6.13-22.88,6.13c-4.63,0-10.08-0.41-16.34-1.23c-6.27-0.82-12.33-2.86-18.18-6.13
		c-5.86-3.27-10.69-8.51-14.5-15.73c-3.82-7.21-5.72-17.36-5.72-30.44v-191.2c0-5.99,1.97-10.96,5.92-14.91
		C2322.34,268.06,2327.18,266.08,2332.9,266.08z"/>
</g>
<g>
	<g>
		<circle class="st2" cx="391.57" cy="391.57" r="391.57"/>
	</g>
	<g>
		<g>
			<g>
				<path class="st3" d="M137.19,515.9c-1.39,0-2.81-0.29-4.15-0.91c-5.02-2.3-7.23-8.23-4.93-13.25l127.33-278.26
					c2.3-5.02,8.23-7.23,13.25-4.93c5.02,2.3,7.23,8.23,4.93,13.25L146.29,510.06C144.61,513.73,140.99,515.9,137.19,515.9z"/>
			</g>
			<g>
				<path class="st3" d="M391.88,515.9c-3.79,0-7.42-2.17-9.1-5.84L255.44,231.8c-2.3-5.02-0.09-10.96,4.93-13.25
					c5.02-2.3,10.96-0.09,13.25,4.93l127.34,278.26c2.3,5.02,0.09,10.96-4.93,13.25C394.68,515.61,393.27,515.9,391.88,515.9z"/>
			</g>
			<g>
				<path class="st3" d="M391.86,515.9c-1.39,0-2.81-0.29-4.15-0.91c-5.02-2.3-7.23-8.23-4.93-13.25l127.34-278.26
					c2.3-5.02,8.23-7.23,13.25-4.93c5.02,2.3,7.23,8.23,4.93,13.25L400.96,510.06C399.28,513.74,395.66,515.9,391.86,515.9z"/>
			</g>
			<g>
				<path class="st3" d="M646.56,515.9c-3.79,0-7.42-2.17-9.1-5.84L510.12,231.8c-2.3-5.02-0.09-10.96,4.93-13.25
					c5.02-2.3,10.96-0.09,13.25,4.93l127.34,278.26c2.3,5.02,0.09,10.96-4.93,13.25C649.36,515.61,647.95,515.9,646.56,515.9z"/>
			</g>
		</g>
		<g>
			<g>
				<ellipse class="st3" cx="136.57" cy="518.45" rx="38.21" ry="37.05"/>
			</g>
		</g>
		<g>
			<g>
				<ellipse class="st3" cx="391.57" cy="518.45" rx="38.21" ry="37.05"/>
			</g>
		</g>
		<g>
			<g>
				<ellipse class="st3" cx="646.57" cy="518.45" rx="38.21" ry="37.05"/>
			</g>
		</g>
	</g>
</g>
</svg>
